# File created by Blade
# Date/Time:  Tue Apr 07 21:12:38 2015
# Frame Rate: 120.000 fps
#------------------------------------------------------
:FULLY-SPECIFIED
:DEGREES
1436
root -5.618803 22.303361 9.792785 716.558733 -74.844814 -435.892241
Spine -73.968843 -20.895321 4.589833
Head -91.742934 13.656879 1.801877
LeftShoulder 158.441492 178.437456 221.969280
LeftArm 178.531046 -27.659756 -151.681870
LeftForeArm 38.771072 0.000000 128.783482
LeftHand -10.449978 -0.000000 -6.774946
LeftHandThumb1 -26.253704 0.000000 33.147579
RightShoulder -20.343319 61.444531 -52.986880
RightArm 117.813882 62.410683 113.913330
RightForeArm -30.032119 -0.000000 132.916302
RightHand -7.976510 -0.000000 6.499433
RightHandThumb1 -24.326973 -0.000000 -32.862282
LeftUpLeg 14.734002 7.423350 20.660119
LeftLeg 103.500258 -0.000000 -0.000000
LeftFoot -19.923045 35.319511 31.339933
LeftToeBase 119.914614 -0.000000 -0.000000
RightUpLeg 7.105370 -20.673733 -13.776862
RightLeg 89.925833 -0.000000 -0.000000
RightFoot 13.790163 -11.469629 -0.491119
RightToeBase -29.295621 -0.000000 0.000000
1437
root -5.576767 22.312984 9.788166 716.632330 -74.719050 -435.978832
Spine -74.037939 -20.956402 4.517503
Head -91.817860 13.549957 1.847403
LeftShoulder 158.388424 178.479417 221.936282
LeftArm 178.281898 -27.621848 -151.629188
LeftForeArm 38.998267 -0.000000 128.865661
LeftHand -10.642052 -0.000000 -6.722646
LeftHandThumb1 -26.253704 0.000000 33.147579
RightShoulder -20.456899 61.309901 -53.063569
RightArm 117.798317 62.316247 113.848946
RightForeArm -29.942427 0.000000 132.876598
RightHand -8.037735 -0.000000 6.505908
RightHandThumb1 -24.326973 -0.000000 -32.862282
LeftUpLeg 14.709432 7.380240 20.630181
LeftLeg 103.273207 -0.000000 -0.000000
LeftFoot -19.935138 35.574308 31.349870
LeftToeBase 119.959446 -0.000000 -0.000000
RightUpLeg 6.692076 -20.465769 -13.462547
RightLeg 89.809195 -0.000000 -0.000000
RightFoot 15.458379 -11.282765 -0.794543
RightToeBase -29.230982 -0.000000 0.000000
1438
root -5.546332 22.338252 9.782031 716.687491 -74.560553 -436.300683
Spine -73.811970 -21.100521 4.442372
Head -91.902294 13.503753 1.844933
LeftShoulder 158.299664 178.512950 221.904904
LeftArm 178.099580 -27.573181 -151.592485
LeftForeArm 39.199862 0.000000 128.936461
LeftHand -10.858681 -0.000000 -6.693645
LeftHandThumb1 -26.253704 0.000000 33.147579
RightShoulder -20.593554 61.260190 -53.142010
RightArm 117.779394 62.234418 113.771452
RightForeArm -30.110096 -0.000000 132.827733
RightHand -8.023864 -0.000000 6.664288
RightHandThumb1 -24.326973 -0.000000 -32.862282
LeftUpLeg 14.986880 7.196926 20.718582
LeftLeg 102.986563 -0.000000 -0.000000
LeftFoot -20.251517 35.798032 30.984822
LeftToeBase 120.058778 -0.000000 -0.000000
RightUpLeg 6.526624 -20.231210 -13.201328
RightLeg 89.681129 -0.000000 -0.000000
RightFoot 17.438478 -11.050625 -1.086424
RightToeBase -29.265102 -0.000000 0.000000
1439
root -5.498057 22.348678 9.775613 716.838497 -74.448994 -436.449298
Spine -73.904167 -21.155920 4.405890
Head -91.932456 13.411958 1.705123
LeftShoulder 158.090720 178.494989 221.893634
LeftArm 177.638782 -27.407345 -151.497781
LeftForeArm 39.226819 -0.000000 129.094978
LeftHand -10.905714 0.000000 -6.675603
LeftHandThumb1 -26.253704 0.000000 33.147579
RightShoulder -20.737335 61.162902 -53.215293
RightArm 117.674538 62.140462 113.596683
RightForeArm -30.109567 -0.000000 132.763085
RightHand -8.065782 0.000000 6.724381
RightHandThumb1 -24.326973 -0.000000 -32.862282
LeftUpLeg 14.972389 7.165896 20.693750
LeftLeg 102.725594 -0.000000 -0.000000
LeftFoot -20.306734 36.115076 30.976054
LeftToeBase 120.040246 -0.000000 -0.000000
RightUpLeg 5.901721 -19.960780 -12.846151
RightLeg 89.567200 -0.000000 -0.000000
RightFoot 19.860089 -10.726103 -1.527534
RightToeBase -29.186799 -0.000000 0.000000
1440
root -5.451375 22.367607 9.769973 716.885442 -74.323082 -436.606884
Spine -73.863709 -21.256833 4.276453
Head -91.981488 13.320877 1.438198
LeftShoulder 158.156720 178.618447 221.951045
LeftArm 177.606409 -27.450349 -151.551650
LeftForeArm 39.171984 0.000000 129.115104
LeftHand -11.190763 -0.000000 -6.751200
LeftHandThumb1 -26.253704 0.000000 33.147579
RightShoulder -20.774973 61.025455 -53.148142
RightArm 117.756053 62.070623 113.522607
RightForeArm -30.037683 -0.000000 132.655010
RightHand -8.095620 -0.000000 6.779467
RightHandThumb1 -24.326973 -0.000000 -32.862282
LeftUpLeg 15.093263 7.049084 20.676118
LeftLeg 102.421767 -0.000000 -0.000000
LeftFoot -20.467536 36.363925 30.850230
LeftToeBase 120.088660 -0.000000 -0.000000
RightUpLeg 5.320739 -19.630243 -12.519905
RightLeg 89.350956 -0.000000 -0.000000
RightFoot 22.548958 -10.481678 -1.334362
RightToeBase -28.331016 -0.000000 0.000000
1441
root -5.390368 22.377116 9.759002 717.314788 -74.169438 -436.944787
Spine -74.074766 -21.346563 4.290825
Head -92.000921 13.204426 1.356752
LeftShoulder 158.119675 178.750451 222.015636
LeftArm 177.382504 -27.461583 -151.602261
LeftForeArm 39.028505 -0.000000 129.144730
LeftHand -11.281282 0.000000 -6.773215
LeftHandThumb1 -26.253704 0.000000 33.147579
RightShoulder -20.919254 60.936410 -53.208213
RightArm 117.703524 61.996528 113.363333
RightForeArm -29.916790 -0.000000 132.542470
RightHand -8.128463 -0.000000 6.901532
RightHandThumb1 -24.326973 -0.000000 -32.862282
LeftUpLeg 14.958212 6.959683 20.650442
LeftLeg 102.152109 -0.000000 -0.000000
LeftFoot -20.583215 36.627739 30.799822
LeftToeBase 120.092396 -0.000000 -0.000000
RightUpLeg 4.364793 -19.292858 -12.024141
RightLeg 89.063140 -0.000000 -0.000000
RightFoot 25.751740 -10.228414 -0.878441
RightToeBase -27.341081 -0.000000 0.000000
1442
root -5.329038 22.396236 9.757149 717.364267 -74.039701 -437.028063
Spine -74.131964 -21.389462 4.136074
Head -92.021640 13.052022 1.222283
LeftShoulder 157.869634 178.718487 221.999493
LeftArm 176.736672 -27.218761 -151.483367
LeftForeArm 39.130498 0.000000 129.338090
LeftHand -11.276236 -0.000000 -6.686565
LeftHandThumb1 -26.253704 0.000000 33.147579
RightShoulder -20.898552 60.751732 -53.097491
RightArm 117.867717 61.873968 113.235484
RightForeArm -29.912737 -0.000000 132.371859
RightHand -8.189719 -0.000000 7.040536
RightHandThumb1 -24.326973 -0.000000 -32.862282
LeftUpLeg 15.008762 6.843969 20.541215
LeftLeg 101.808211 -0.000000 -0.000000
LeftFoot -20.698441 36.919172 30.740484
LeftToeBase 120.087642 -0.000000 -0.000000
RightUpLeg 3.469993 -18.828110 -11.664841
RightLeg 88.651525 -0.000000 -0.000000
RightFoot 29.407028 -9.998629 -0.254522
RightToeBase -25.140370 -0.000000 0.000000
1443
root -5.268510 22.418590 9.742693 717.872646 -73.812308 -437.595577
Spine -74.184743 -21.563837 4.110587
Head -92.055641 12.942557 1.136436
LeftShoulder 158.102284 179.024268 222.084881
LeftArm 176.821902 -27.409440 -151.601127
LeftForeArm 38.970200 -0.000000 129.197610
LeftHand -11.253339 -0.000000 -6.660585
LeftHandThumb1 -26.253704 0.000000 33.147579
RightShoulder -20.902353 60.723359 -53.031306
RightArm 117.858282 61.867776 112.935942
RightForeArm -29.915157 -0.000000 132.177650
RightHand -8.215617 -0.000000 7.206084
RightHandThumb1 -24.326973 -0.000000 -32.862282
LeftUpLeg 15.027307 6.577060 20.565839
LeftLeg 101.478173 -0.000000 -0.000000
LeftFoot -20.982513 37.164372 30.543971
LeftToeBase 120.139140 -0.000000 -0.000000
RightUpLeg 2.519274 -18.373688 -11.142411
RightLeg 88.041873 -0.000000 -0.000000
RightFoot 33.762281 -9.890382 0.709403
RightToeBase -22.526726 -0.000000 0.000000
